{
    "asset" : {
        "generator" : "Khronos glTF Blender I/O v3.3.32",
        "version" : "2.0"
    },
    "scene" : 0,
    "scenes" : [
        {
            "name" : "Scene",
            "nodes" : [
                0
            ]
        }
    ],
    "nodes" : [
        {
            "mesh" : 0,
            "name" : "Cylinder.002",
            "rotation" : [
                0,
                0,
                -0.7071068286895752,
                0.7071068286895752
            ],
            "translation" : [
                0.9300000071525574,
                1.5399999618530273,
                0
            ]
        }
    ],
    "meshes" : [
        {
            "name" : "Cylinder.003",
            "primitives" : [
                {
                    "attributes" : {
                        "POSITION" : 0,
                        "NORMAL" : 1,
                        "TEXCOORD_0" : 2
                    },
                    "indices" : 3
                }
            ]
        }
    ],
    "accessors" : [
        {
            "bufferView" : 0,
            "componentType" : 5126,
            "count" : 1040,
            "max" : [
                1.5781089067459106,
                0.2499999850988388,
                1
            ],
            "min" : [
                -1.1400001049041748,
                -1.9299999475479126,
                -1
            ],
            "type" : "VEC3"
        },
        {
            "bufferView" : 1,
            "componentType" : 5126,
            "count" : 1040,
            "type" : "VEC3"
        },
        {
            "bufferView" : 2,
            "componentType" : 5126,
            "count" : 1040,
            "type" : "VEC2"
        },
        {
            "bufferView" : 3,
            "componentType" : 5123,
            "count" : 1596,
            "type" : "SCALAR"
        }
    ],
    "bufferViews" : [
        {
            "buffer" : 0,
            "byteLength" : 12480,
            "byteOffset" : 0,
            "target" : 34962
        },
        {
            "buffer" : 0,
            "byteLength" : 12480,
            "byteOffset" : 12480,
            "target" : 34962
        },
        {
            "buffer" : 0,
            "byteLength" : 8320,
            "byteOffset" : 24960,
            "target" : 34962
        },
        {
            "buffer" : 0,
            "byteLength" : 3192,
            "byteOffset" : 33280,
            "target" : 34963
        }
    ],
    "buffers" : [
        {
            "byteLength" : 36472,
            "uri" : "data:application/octet-stream;base64,"
        }
    ]
}
